<svg width="101" height="128" viewBox="0 0 101 128" fill="none" xmlns="http://www.w3.org/2000/svg">
<path d="M13.86 123.48C14.02 123.72 14.0867 123.94 14.06 124.14C14.0333 124.34 13.9467 124.507 13.8 124.64C13.6667 124.787 13.4933 124.873 13.28 124.9C13.08 124.94 12.8733 124.92 12.66 124.84C12.46 124.76 12.2867 124.6 12.14 124.36L10.82 122.22C10.62 121.887 10.3467 121.627 10 121.44C9.65333 121.267 9.23333 121.18 8.74 121.18L10.38 120.52C11.0067 120.52 11.5 120.633 11.86 120.86C12.2333 121.073 12.6 121.467 12.96 122.04L13.86 123.48ZM8.76 121.18C7.42667 121.18 6.26 120.887 5.26 120.3C4.27333 119.7 3.50667 118.86 2.96 117.78C2.42667 116.687 2.16 115.407 2.16 113.94C2.16 112.833 2.31333 111.84 2.62 110.96C2.92667 110.067 3.36667 109.307 3.94 108.68C4.51333 108.04 5.20667 107.553 6.02 107.22C6.83333 106.887 7.74667 106.72 8.76 106.72C10.1067 106.72 11.2733 107.013 12.26 107.6C13.2467 108.187 14.0067 109.02 14.54 110.1C15.0867 111.18 15.36 112.453 15.36 113.92C15.36 115.027 15.2067 116.027 14.9 116.92C14.5933 117.813 14.1467 118.58 13.56 119.22C12.9867 119.86 12.2933 120.347 11.48 120.68C10.6667 121.013 9.76 121.18 8.76 121.18ZM8.76 119.38C9.69333 119.38 10.4867 119.167 11.14 118.74C11.8067 118.313 12.3133 117.693 12.66 116.88C13.02 116.067 13.2 115.087 13.2 113.94C13.2 112.22 12.8133 110.887 12.04 109.94C11.2667 108.993 10.1733 108.52 8.76 108.52C7.82667 108.52 7.02667 108.733 6.36 109.16C5.70667 109.573 5.2 110.187 4.84 111C4.49333 111.813 4.32 112.793 4.32 113.94C4.32 115.647 4.70667 116.98 5.48 117.94C6.26667 118.9 7.36 119.38 8.76 119.38ZM21.4078 121.18C20.6211 121.18 19.9611 121.033 19.4278 120.74C18.9078 120.447 18.5145 120.013 18.2478 119.44C17.9945 118.853 17.8678 118.12 17.8678 117.24V112.12C17.8678 111.773 17.9545 111.52 18.1278 111.36C18.3011 111.187 18.5478 111.1 18.8678 111.1C19.1878 111.1 19.4345 111.187 19.6078 111.36C19.7945 111.52 19.8878 111.773 19.8878 112.12V117.26C19.8878 118.047 20.0478 118.627 20.3678 119C20.6878 119.373 21.1945 119.56 21.8878 119.56C22.6478 119.56 23.2611 119.307 23.7278 118.8C24.2078 118.28 24.4478 117.6 24.4478 116.76V112.12C24.4478 111.773 24.5345 111.52 24.7078 111.36C24.8811 111.187 25.1345 111.1 25.4678 111.1C25.7878 111.1 26.0345 111.187 26.2078 111.36C26.3811 111.52 26.4678 111.773 26.4678 112.12V120.12C26.4678 120.8 26.1411 121.14 25.4878 121.14C25.1811 121.14 24.9411 121.053 24.7678 120.88C24.5945 120.693 24.5078 120.44 24.5078 120.12V118.42L24.7678 118.86C24.5011 119.607 24.0745 120.18 23.4878 120.58C22.9011 120.98 22.2078 121.18 21.4078 121.18ZM33.8945 121.18C32.8279 121.18 31.9079 120.98 31.1345 120.58C30.3745 120.167 29.7812 119.587 29.3545 118.84C28.9412 118.08 28.7345 117.18 28.7345 116.14C28.7345 115.127 28.9412 114.24 29.3545 113.48C29.7679 112.72 30.3345 112.127 31.0545 111.7C31.7745 111.273 32.5945 111.06 33.5145 111.06C34.1945 111.06 34.8012 111.173 35.3345 111.4C35.8679 111.613 36.3212 111.933 36.6945 112.36C37.0812 112.773 37.3679 113.28 37.5545 113.88C37.7545 114.48 37.8545 115.153 37.8545 115.9C37.8545 116.127 37.7879 116.3 37.6545 116.42C37.5212 116.527 37.3212 116.58 37.0545 116.58H30.3345V115.34H36.4945L36.1545 115.62C36.1545 114.953 36.0545 114.387 35.8545 113.92C35.6679 113.453 35.3812 113.1 34.9945 112.86C34.6212 112.607 34.1545 112.48 33.5945 112.48C32.9679 112.48 32.4345 112.627 31.9945 112.92C31.5679 113.213 31.2412 113.62 31.0145 114.14C30.7879 114.66 30.6745 115.267 30.6745 115.96V116.08C30.6745 117.253 30.9479 118.14 31.4945 118.74C32.0545 119.327 32.8612 119.62 33.9145 119.62C34.3145 119.62 34.7345 119.567 35.1745 119.46C35.6279 119.353 36.0545 119.173 36.4545 118.92C36.6812 118.787 36.8812 118.727 37.0545 118.74C37.2412 118.753 37.3879 118.813 37.4945 118.92C37.6145 119.027 37.6879 119.16 37.7145 119.32C37.7412 119.48 37.7145 119.647 37.6345 119.82C37.5545 119.98 37.4145 120.127 37.2145 120.26C36.7612 120.567 36.2345 120.8 35.6345 120.96C35.0345 121.107 34.4545 121.18 33.8945 121.18ZM43.4767 121.18C42.8901 121.18 42.2834 121.113 41.6567 120.98C41.0434 120.847 40.4767 120.62 39.9567 120.3C39.7834 120.18 39.6634 120.047 39.5967 119.9C39.5301 119.753 39.5034 119.607 39.5167 119.46C39.5434 119.3 39.6034 119.167 39.6967 119.06C39.8034 118.94 39.9301 118.867 40.0767 118.84C40.2367 118.813 40.4034 118.847 40.5767 118.94C41.0967 119.233 41.5967 119.44 42.0767 119.56C42.5567 119.667 43.0301 119.72 43.4967 119.72C44.2034 119.72 44.7367 119.593 45.0967 119.34C45.4567 119.087 45.6367 118.747 45.6367 118.32C45.6367 117.973 45.5167 117.707 45.2767 117.52C45.0367 117.32 44.6767 117.167 44.1967 117.06L42.2967 116.68C41.4701 116.507 40.8434 116.2 40.4167 115.76C39.9901 115.32 39.7767 114.76 39.7767 114.08C39.7767 113.467 39.9434 112.933 40.2767 112.48C40.6101 112.027 41.0767 111.68 41.6767 111.44C42.2767 111.187 42.9701 111.06 43.7567 111.06C44.3434 111.06 44.8967 111.133 45.4167 111.28C45.9367 111.427 46.4167 111.647 46.8567 111.94C47.0301 112.033 47.1434 112.16 47.1967 112.32C47.2501 112.467 47.2567 112.613 47.2167 112.76C47.1901 112.907 47.1234 113.04 47.0167 113.16C46.9101 113.267 46.7767 113.333 46.6167 113.36C46.4701 113.373 46.3034 113.333 46.1167 113.24C45.7167 112.987 45.3167 112.807 44.9167 112.7C44.5301 112.593 44.1434 112.54 43.7567 112.54C43.0501 112.54 42.5167 112.673 42.1567 112.94C41.8101 113.193 41.6367 113.54 41.6367 113.98C41.6367 114.313 41.7434 114.587 41.9567 114.8C42.1701 115.013 42.5034 115.167 42.9567 115.26L44.8567 115.64C45.7234 115.813 46.3767 116.107 46.8167 116.52C47.2701 116.933 47.4967 117.493 47.4967 118.2C47.4967 119.12 47.1301 119.847 46.3967 120.38C45.6634 120.913 44.6901 121.18 43.4767 121.18ZM53.8066 121.18C53.0066 121.18 52.3332 121.04 51.7866 120.76C51.2399 120.48 50.8332 120.067 50.5666 119.52C50.2999 118.973 50.1666 118.307 50.1666 117.52V112.8H48.9666C48.6999 112.8 48.4932 112.733 48.3466 112.6C48.1999 112.453 48.1266 112.26 48.1266 112.02C48.1266 111.767 48.1999 111.573 48.3466 111.44C48.4932 111.307 48.6999 111.24 48.9666 111.24H50.1666V109.18C50.1666 108.847 50.2532 108.593 50.4266 108.42C50.6132 108.247 50.8666 108.16 51.1866 108.16C51.5066 108.16 51.7532 108.247 51.9266 108.42C52.0999 108.593 52.1866 108.847 52.1866 109.18V111.24H54.5266C54.7932 111.24 54.9999 111.307 55.1466 111.44C55.2932 111.573 55.3666 111.767 55.3666 112.02C55.3666 112.26 55.2932 112.453 55.1466 112.6C54.9999 112.733 54.7932 112.8 54.5266 112.8H52.1866V117.36C52.1866 118.067 52.3332 118.6 52.6266 118.96C52.9332 119.32 53.4266 119.5 54.1066 119.5C54.3466 119.5 54.5532 119.48 54.7266 119.44C54.9132 119.387 55.0666 119.353 55.1866 119.34C55.3332 119.34 55.4532 119.393 55.5466 119.5C55.6399 119.593 55.6866 119.78 55.6866 120.06C55.6866 120.26 55.6466 120.447 55.5666 120.62C55.4999 120.793 55.3732 120.907 55.1866 120.96C55.0266 121.013 54.8066 121.06 54.5266 121.1C54.2599 121.153 54.0199 121.18 53.8066 121.18ZM58.127 121.12C57.807 121.12 57.5604 121.027 57.387 120.84C57.2137 120.64 57.127 120.367 57.127 120.02V112.22C57.127 111.873 57.2137 111.607 57.387 111.42C57.5604 111.233 57.807 111.14 58.127 111.14C58.447 111.14 58.6937 111.233 58.867 111.42C59.0537 111.607 59.147 111.873 59.147 112.22V120.02C59.147 120.367 59.0604 120.64 58.887 120.84C58.7137 121.027 58.4604 121.12 58.127 121.12ZM58.127 109.06C57.727 109.06 57.4137 108.96 57.187 108.76C56.9737 108.56 56.867 108.28 56.867 107.92C56.867 107.547 56.9737 107.267 57.187 107.08C57.4137 106.88 57.727 106.78 58.127 106.78C58.527 106.78 58.8337 106.88 59.047 107.08C59.2737 107.267 59.387 107.547 59.387 107.92C59.387 108.28 59.2737 108.56 59.047 108.76C58.8337 108.96 58.527 109.06 58.127 109.06ZM66.2303 121.18C65.2436 121.18 64.3903 120.973 63.6703 120.56C62.9636 120.147 62.4103 119.56 62.0103 118.8C61.6103 118.04 61.4103 117.147 61.4103 116.12C61.4103 115.333 61.5236 114.633 61.7503 114.02C61.977 113.407 62.297 112.88 62.7103 112.44C63.137 111.987 63.6436 111.647 64.2303 111.42C64.8303 111.18 65.497 111.06 66.2303 111.06C67.2036 111.06 68.0436 111.267 68.7503 111.68C69.4703 112.093 70.0303 112.68 70.4303 113.44C70.8303 114.187 71.0303 115.08 71.0303 116.12C71.0303 116.893 70.917 117.593 70.6903 118.22C70.4636 118.847 70.137 119.38 69.7103 119.82C69.297 120.26 68.7903 120.6 68.1903 120.84C67.6036 121.067 66.9503 121.18 66.2303 121.18ZM66.2303 119.62C66.777 119.62 67.257 119.487 67.6703 119.22C68.0836 118.953 68.4036 118.56 68.6303 118.04C68.8703 117.52 68.9903 116.88 68.9903 116.12C68.9903 114.973 68.737 114.107 68.2303 113.52C67.7236 112.933 67.057 112.64 66.2303 112.64C65.6703 112.64 65.1836 112.773 64.7703 113.04C64.357 113.293 64.0303 113.68 63.7903 114.2C63.5636 114.72 63.4503 115.36 63.4503 116.12C63.4503 117.253 63.7036 118.12 64.2103 118.72C64.717 119.32 65.3903 119.62 66.2303 119.62ZM74.2989 121.14C73.9789 121.14 73.7322 121.053 73.5589 120.88C73.3856 120.693 73.2989 120.44 73.2989 120.12V112.12C73.2989 111.787 73.3856 111.533 73.5589 111.36C73.7322 111.187 73.9722 111.1 74.2789 111.1C74.5989 111.1 74.8389 111.187 74.9989 111.36C75.1722 111.533 75.2589 111.787 75.2589 112.12V113.68L75.0389 113.32C75.3322 112.573 75.7922 112.013 76.4189 111.64C77.0456 111.253 77.7656 111.06 78.5789 111.06C79.3522 111.06 79.9922 111.207 80.4989 111.5C81.0189 111.78 81.4056 112.213 81.6589 112.8C81.9122 113.373 82.0389 114.1 82.0389 114.98V120.12C82.0389 120.44 81.9522 120.693 81.7789 120.88C81.6056 121.053 81.3589 121.14 81.0389 121.14C80.7056 121.14 80.4522 121.053 80.2789 120.88C80.1056 120.693 80.0189 120.44 80.0189 120.12V115.1C80.0189 114.26 79.8522 113.647 79.5189 113.26C79.1989 112.873 78.6922 112.68 77.9989 112.68C77.1856 112.68 76.5322 112.933 76.0389 113.44C75.5589 113.947 75.3189 114.627 75.3189 115.48V120.12C75.3189 120.8 74.9789 121.14 74.2989 121.14Z" fill="#0A0A0B"/>
<g filter="url(#filter0_d_1_2)">
<path d="M27.6901 17.1837C32.258 14.4476 37.4825 13.0017 42.8072 13C47.2372 12.9974 51.6108 13.9947 55.6018 15.9177C59.5927 17.8407 63.0984 20.6396 65.857 24.106C68.6156 27.5724 70.5564 31.6167 71.5346 35.9374C72.5127 40.2582 72.5031 44.7441 71.506 49.0606C70.509 53.3771 68.5508 57.4131 65.7768 60.867C63.0032 64.3215 59.4855 67.1052 55.486 69.0108C51.4867 70.9163 47.1088 71.8945 42.6788 71.8723C38.9813 71.8544 35.3271 71.1396 31.9054 69.7729L15.8162 72.4517C14.0185 72.7514 12.5491 71.0285 13.1281 69.3007L17.244 57.0158C14.9513 52.9946 13.6345 48.4801 13.4132 43.8374C13.1598 38.5188 14.3538 33.2311 16.8679 28.5374C19.382 23.8437 23.1222 19.9198 27.6901 17.1837V17.1837Z" fill="#F3F7FB" stroke="#286FB4" stroke-width="5" stroke-linecap="round" stroke-linejoin="round"/>
<path d="M57.7626 44.218C57.1208 44.218 56.6008 43.6979 56.6008 43.0563C56.6008 42.4147 57.1208 41.8945 57.7626 41.8945" fill="#F3F7FB"/>
<path d="M57.7626 44.218C57.1208 44.218 56.6008 43.6979 56.6008 43.0563C56.6008 42.4147 57.1208 41.8945 57.7626 41.8945" stroke="#286FB4" stroke-width="5" stroke-linecap="round" stroke-linejoin="round"/>
<path d="M57.7626 44.2181C58.4044 44.2181 58.9244 43.698 58.9244 43.0564C58.9244 42.4148 58.4044 41.8947 57.7626 41.8947" fill="#F3F7FB"/>
<path d="M57.7626 44.2181C58.4044 44.2181 58.9244 43.698 58.9244 43.0564C58.9244 42.4148 58.4044 41.8947 57.7626 41.8947" stroke="#286FB4" stroke-width="5" stroke-linecap="round" stroke-linejoin="round"/>
<path d="M43.2642 44.218C42.6226 44.218 42.1024 43.6979 42.1024 43.0563C42.1024 42.4147 42.6226 41.8945 43.2642 41.8945" fill="#F3F7FB"/>
<path d="M43.2642 44.218C42.6226 44.218 42.1024 43.6979 42.1024 43.0563C42.1024 42.4147 42.6226 41.8945 43.2642 41.8945" stroke="#286FB4" stroke-width="5" stroke-linecap="round" stroke-linejoin="round"/>
<path d="M43.2643 44.2181C43.9059 44.2181 44.4261 43.698 44.4261 43.0564C44.4261 42.4148 43.9059 41.8947 43.2643 41.8947" fill="#F3F7FB"/>
<path d="M43.2643 44.2181C43.9059 44.2181 44.4261 43.698 44.4261 43.0564C44.4261 42.4148 43.9059 41.8947 43.2643 41.8947" stroke="#286FB4" stroke-width="5" stroke-linecap="round" stroke-linejoin="round"/>
<path d="M28.7658 44.218C28.1242 44.218 27.6041 43.6979 27.6041 43.0563C27.6041 42.4147 28.1242 41.8945 28.7658 41.8945" fill="#F3F7FB"/>
<path d="M28.7658 44.218C28.1242 44.218 27.6041 43.6979 27.6041 43.0563C27.6041 42.4147 28.1242 41.8945 28.7658 41.8945" stroke="#286FB4" stroke-width="5" stroke-linecap="round" stroke-linejoin="round"/>
<path d="M28.766 44.2181C29.4076 44.2181 29.9277 43.698 29.9277 43.0564C29.9277 42.4148 29.4076 41.8947 28.766 41.8947" fill="#F3F7FB"/>
<path d="M28.766 44.2181C29.4076 44.2181 29.9277 43.698 29.9277 43.0564C29.9277 42.4148 29.4076 41.8947 28.766 41.8947" stroke="#286FB4" stroke-width="5" stroke-linecap="round" stroke-linejoin="round"/>
</g>
<defs>
<filter id="filter0_d_1_2" x="0.497021" y="0.5" width="100.264" height="100.487" filterUnits="userSpaceOnUse" color-interpolation-filters="sRGB">
<feFlood flood-opacity="0" result="BackgroundImageFix"/>
<feColorMatrix in="SourceAlpha" type="matrix" values="0 0 0 0 0 0 0 0 0 0 0 0 0 0 0 0 0 0 127 0" result="hardAlpha"/>
<feOffset dx="8" dy="8"/>
<feGaussianBlur stdDeviation="9"/>
<feComposite in2="hardAlpha" operator="out"/>
<feColorMatrix type="matrix" values="0 0 0 0 0.156863 0 0 0 0 0.435294 0 0 0 0 0.705882 0 0 0 0.2 0"/>
<feBlend mode="normal" in2="BackgroundImageFix" result="effect1_dropShadow_1_2"/>
<feBlend mode="normal" in="SourceGraphic" in2="effect1_dropShadow_1_2" result="shape"/>
</filter>
</defs>
</svg>
